<svg width="14" height="14" viewBox="0 0 14 14" fill="none" xmlns="http://www.w3.org/2000/svg">
<g clip-path="url(#clip0_1620_42058)">
<path d="M7.70242 0.0972234L7.41444 3.64387C7.27826 3.62833 7.14205 3.62056 7.00195 3.62056C6.82681 3.62056 6.6556 3.63221 6.48828 3.65941L6.3248 1.94055C6.32092 1.88611 6.36373 1.83944 6.41821 1.83944H6.71008L6.56997 0.101108C6.56609 0.046668 6.6089 0 6.65949 0H7.6129C7.66738 0 7.71019 0.046668 7.70242 0.101108V0.0972234ZM5.29747 0.272199C5.28187 0.221644 5.2274 0.190517 5.17681 0.209989L4.28176 0.536629C4.23117 0.556101 4.20784 0.614427 4.23117 0.661096L4.9589 2.24777L4.68258 2.34888C4.63199 2.3683 4.60866 2.42667 4.63199 2.4733L5.37528 4.03277C5.64382 3.88499 5.93564 3.77222 6.24311 3.7022L5.30136 0.272199H5.29747ZM3.10263 1.25998L5.16126 4.16107C4.90054 4.33221 4.66314 4.53443 4.46079 4.76778L3.22716 3.55442C3.18824 3.51552 3.19214 3.45331 3.23105 3.41834L3.45676 3.23166L2.23093 1.99111C2.19201 1.95221 2.1959 1.89 2.23871 1.85498L2.96642 1.24444C3.00923 1.20943 3.06761 1.2172 3.09874 1.25998H3.10263ZM1.37479 2.93999C1.33198 2.90886 1.26972 2.92445 1.24248 2.97107L0.767709 3.79554C0.740471 3.8422 0.759929 3.90053 0.806626 3.92389L2.38659 4.67055L2.23871 4.92333C2.21147 4.97 2.23093 5.03221 2.28152 5.05163L3.85369 5.7711C3.96655 5.47943 4.11833 5.20723 4.30513 4.96222L1.37479 2.93999ZM0.211221 5.17998C0.219006 5.12554 0.273488 5.09442 0.324077 5.10612L3.76808 6.00445C3.67858 6.29612 3.62799 6.60333 3.6202 6.9222L1.89626 6.78219C1.84177 6.77831 1.80286 6.72776 1.81453 6.67332L1.86512 6.38553L0.125608 6.22221C0.0711269 6.21832 0.0361034 6.16777 0.0438839 6.11333L0.207329 5.1761L0.211221 5.17998ZM0.0827999 7.50555C0.0283184 7.50943 -0.00670426 7.55999 0.00107985 7.61443L0.168417 8.55166C0.176197 8.6061 0.230679 8.63722 0.281268 8.62552L1.9702 8.18612L2.02079 8.47386C2.02857 8.52834 2.08305 8.55943 2.13364 8.54777L3.79921 8.08889C3.70192 7.8011 3.63966 7.49389 3.6241 7.17886L0.0789074 7.50555H0.0827999ZM0.6354 9.97112C0.608157 9.92445 0.627615 9.86608 0.674312 9.84277L3.88872 8.31831C4.00935 8.6061 4.1728 8.87445 4.36738 9.11553L2.95864 10.1189C2.91584 10.15 2.85357 10.1383 2.82633 10.0917L2.67845 9.835L1.24248 10.8267C1.19967 10.8577 1.13741 10.8422 1.11016 10.7955L0.631508 9.97112H0.6354ZM4.53082 9.30221L2.02857 11.8339C1.98965 11.8728 1.99354 11.935 2.03635 11.97L2.76796 12.5805C2.81077 12.6156 2.86914 12.6078 2.90027 12.565L3.91207 11.1416L4.13777 11.3322C4.18058 11.3672 4.24283 11.3595 4.27398 11.3128L5.25466 9.88943C4.99 9.72612 4.74484 9.52778 4.5347 9.30221H4.53082ZM4.0366 13.3661C3.98601 13.3467 3.96266 13.2883 3.98601 13.2417L5.46868 10.0061C5.74111 10.1461 6.03682 10.2511 6.34429 10.3094L5.90843 11.9817C5.89676 12.0322 5.83835 12.0633 5.78777 12.0439L5.51149 11.9428L5.04841 13.6266C5.03282 13.6772 4.97834 13.7083 4.92775 13.6889L4.03271 13.3622L4.0366 13.3661ZM6.58946 10.3522L6.30148 13.8989C6.29759 13.9533 6.3404 14 6.39099 14H7.34441C7.39888 14 7.4417 13.9533 7.43392 13.8989L7.29382 12.1606H7.58569C7.64017 12.1606 7.68298 12.1139 7.67909 12.0594L7.51561 10.3405C7.34829 10.3678 7.17704 10.3794 7.00195 10.3794C6.86184 10.3794 6.72563 10.3717 6.58946 10.3522ZM10.0218 0.750549C10.0451 0.699994 10.0218 0.645555 9.97119 0.626083L9.07614 0.299443C9.02555 0.279971 8.97108 0.311099 8.95548 0.361653L8.4924 2.04555L8.21608 1.94444C8.16549 1.92496 8.11102 1.95609 8.09547 2.00665L7.65961 3.67888C7.97092 3.74109 8.26279 3.84609 8.53522 3.98221L10.0218 0.750549ZM11.9753 2.1622L9.47308 4.69386C9.2629 4.46833 9.02167 4.27 8.75312 4.10663L9.7338 2.68333C9.76495 2.64055 9.8272 2.62889 9.87002 2.66386L10.0957 2.85442L11.1075 1.43107C11.1386 1.38833 11.2009 1.38052 11.2398 1.41553L11.9714 2.02607C12.0142 2.06109 12.0142 2.1233 11.9792 2.1622H11.9753ZM13.3296 4.1533C13.3801 4.12999 13.3957 4.07167 13.3685 4.025L12.8899 3.20053C12.8626 3.15386 12.8003 3.14221 12.7575 3.16941L11.3215 4.16107L11.1737 3.9083C11.1464 3.86163 11.0842 3.84609 11.0413 3.8811L9.63262 4.88443C9.8272 5.12554 9.98675 5.39386 10.1113 5.68165L13.3257 4.15719L13.3296 4.1533ZM13.8355 5.44441L13.9989 6.38164C14.0067 6.43608 13.9717 6.48275 13.9172 6.49052L10.372 6.82109C10.3565 6.50222 10.2942 6.1989 10.1969 5.91111L11.8625 5.45223C11.9131 5.43664 11.9675 5.47166 11.9753 5.5261L12.0259 5.81388L13.7148 5.37443C13.7654 5.36278 13.8199 5.39386 13.8277 5.4483L13.8355 5.44441ZM13.6759 8.88611C13.7265 8.89777 13.781 8.86664 13.7888 8.8122L13.9522 7.87497C13.96 7.82053 13.925 7.77386 13.8705 7.76609L12.131 7.60277L12.1816 7.31498C12.1893 7.26054 12.1543 7.21387 12.0999 7.2061L10.3759 7.0661C10.3681 7.38497 10.3175 7.69222 10.228 7.9839L13.672 8.88223L13.6759 8.88611ZM12.7575 11.025C12.7303 11.0717 12.668 11.0833 12.6252 11.0561L9.69488 9.03389C9.88168 8.78889 10.0334 8.51664 10.1463 8.22497L11.7185 8.94444C11.7691 8.96775 11.7885 9.02612 11.7613 9.07274L11.6134 9.32556L13.1934 10.0722C13.2401 10.0955 13.2595 10.1539 13.2323 10.2005L12.7575 11.025ZM8.83875 9.83111L10.8973 12.7322C10.9285 12.775 10.9908 12.7828 11.0297 12.7478L11.7574 12.1372C11.8002 12.1022 11.8002 12.04 11.7652 12.0011L10.5393 10.7606L10.7651 10.5739C10.8079 10.5389 10.8079 10.4767 10.769 10.4378L9.53533 9.22445C9.32909 9.45775 9.09558 9.66386 8.83486 9.83111H8.83875ZM8.81931 13.7822C8.76872 13.8017 8.7142 13.7705 8.69865 13.72L7.7569 10.29C8.06432 10.22 8.35619 10.1072 8.62473 9.95942L9.36801 11.5189C9.39134 11.5694 9.36801 11.6278 9.31742 11.6433L9.04111 11.7444L9.76884 13.3311C9.79217 13.3816 9.76884 13.4361 9.71825 13.4556L8.8232 13.7822H8.81931Z" fill="#2F353B"/>
</g>
<defs>
<clipPath id="clip0_1620_42058">
<rect width="14" height="14" fill="white"/>
</clipPath>
</defs>
</svg>
